<svg xmlns="http://www.w3.org/2000/svg" version="1.1" xmlns:xlink="http://www.w3.org/1999/xlink" xmlns:svgjs="http://svgjs.dev/svgjs" width="1500" height="1500" viewBox="0 0 1500 1500"><rect width="1500" height="1500" fill="#051726"></rect><g transform="matrix(0.6666666666666666,0,0,0.6666666666666666,249.39393939393938,473.10533083816205)"><svg viewBox="0 0 396 219" data-background-color="#051726" preserveAspectRatio="xMidYMid meet" height="829" width="1500" xmlns="http://www.w3.org/2000/svg" xmlns:xlink="http://www.w3.org/1999/xlink"><g id="tight-bounds" transform="matrix(1,0,0,1,0.2400000000000091,0.22243524688032323)"><svg viewBox="0 0 395.52 218.55512950623935" height="218.55512950623935" width="395.52"><g><svg viewBox="0 0 397.4975999999999 219.64790515377052" height="218.55512950623935" width="395.52"><g><rect width="397.4975999999999" height="6.283187196049792" x="0" y="112.7362836725517" fill="#ffffff" opacity="1" stroke-width="0" stroke="transparent" fill-opacity="1" class="rect-qz-0" data-fill-palette-color="primary" rx="1%" id="qz-0" data-palette-color="#ffffff"></rect></g><g><rect width="397.4975999999999" height="6.283187196049792" x="0" y="127.24353787913788" fill="#ffffff" opacity="1" stroke-width="0" stroke="transparent" fill-opacity="1" class="rect-qz-1" data-fill-palette-color="primary" rx="1%" id="qz-1" data-palette-color="#ffffff"></rect></g><g transform="matrix(1,0,0,1,0.9887999999999693,149.97485909626042)"><svg viewBox="0 0 395.52 69.67304605751009" height="69.67304605751009" width="395.52"><g id="textblocktransform"><svg viewBox="0 0 395.52 69.67304605751009" height="69.67304605751009" width="395.52" id="textblock"><g><svg viewBox="0 0 395.52 69.67304605751009" height="69.67304605751009" width="395.52"><g transform="matrix(1,0,0,1,0,0)"><svg width="395.52" viewBox="1.68 -39.11 296.29 52.199999999999996" height="69.67304605751009" data-palette-color="#ffffff"><path d="M27.49 0L24.44-9.23 10.11-9.23 7.1 0 1.68 0 14.36-35.77 21.22-35.77 33.89 0 27.49 0ZM11.4-13.38L23.1-13.38 18.85-26.61 17.5-31.71 17.02-31.71 15.7-26.61 11.4-13.38ZM45.55-18.46L45.55-4.76Q46.16-4.47 46.86-4.27 47.56-4.08 48.22-3.96 48.87-3.83 49.48-3.78 50.1-3.74 50.53-3.74L50.53-3.74Q52.41-3.74 53.93-4.48 55.44-5.22 56.52-6.51 57.59-7.79 58.16-9.5 58.74-11.21 58.74-13.16L58.74-13.16Q58.74-14.99 58.26-16.58 57.79-18.16 56.93-19.34 56.08-20.51 54.86-21.18 53.64-21.85 52.17-21.85L52.17-21.85Q50.41-21.85 48.72-20.91 47.02-19.97 45.55-18.46L45.55-18.46ZM44.38-25.88L45.26-21.53Q46.14-22.36 47.17-23.22 48.19-24.07 49.37-24.77 50.56-25.46 51.91-25.92 53.27-26.37 54.81-26.37L54.81-26.37Q57.18-26.37 59.04-25.33 60.91-24.29 62.2-22.57 63.5-20.85 64.19-18.62 64.89-16.38 64.89-14.01L64.89-14.01Q64.89-10.89 63.74-8.23 62.6-5.57 60.62-3.63 58.64-1.68 55.98-0.6 53.32 0.49 50.31 0.49L50.31 0.49Q49.73 0.49 49.08 0.45 48.44 0.42 47.81 0.34 47.19 0.27 46.6 0.16 46.02 0.05 45.55-0.1L45.55-0.1 45.55 13.09 39.65 13.09 39.65-25.88 44.38-25.88ZM77.39-18.46L77.39-4.76Q78-4.47 78.69-4.27 79.39-4.08 80.05-3.96 80.71-3.83 81.32-3.78 81.93-3.74 82.37-3.74L82.37-3.74Q84.25-3.74 85.76-4.48 87.28-5.22 88.35-6.51 89.42-7.79 90-9.5 90.57-11.21 90.57-13.16L90.57-13.16Q90.57-14.99 90.1-16.58 89.62-18.16 88.76-19.34 87.91-20.51 86.69-21.18 85.47-21.85 84-21.85L84-21.85Q82.25-21.85 80.55-20.91 78.85-19.97 77.39-18.46L77.39-18.46ZM76.22-25.88L77.09-21.53Q77.97-22.36 79-23.22 80.02-24.07 81.21-24.77 82.39-25.46 83.75-25.92 85.1-26.37 86.64-26.37L86.64-26.37Q89.01-26.37 90.88-25.33 92.74-24.29 94.04-22.57 95.33-20.85 96.03-18.62 96.72-16.38 96.72-14.01L96.72-14.01Q96.72-10.89 95.58-8.23 94.43-5.57 92.45-3.63 90.47-1.68 87.81-0.6 85.15 0.49 82.15 0.49L82.15 0.49Q81.56 0.49 80.92 0.45 80.27 0.42 79.65 0.34 79.02 0.27 78.44 0.16 77.85 0.05 77.39-0.1L77.39-0.1 77.39 13.09 71.48 13.09 71.48-25.88 76.22-25.88ZM103.31 0L103.31-39.11 109.22-39.11 109.22 0 103.31 0ZM138.54-5.32L138.54-2.37Q137.47-1.61 136.22-1.07 134.98-0.54 133.66-0.18 132.34 0.17 131.03 0.33 129.73 0.49 128.55 0.49L128.55 0.49Q125.84 0.49 123.51-0.34 121.18-1.17 119.46-2.78 117.74-4.39 116.76-6.75 115.79-9.11 115.79-12.16L115.79-12.16Q115.79-15.41 116.88-18.04 117.98-20.68 119.83-22.52 121.67-24.37 124.1-25.37 126.53-26.37 129.16-26.37L129.16-26.37Q131.36-26.37 133.25-25.65 135.15-24.93 136.53-23.51 137.91-22.09 138.69-19.97 139.47-17.85 139.47-15.04L139.47-15.04Q139.47-14.36 139.41-13.59 139.35-12.82 139.2-12.08L139.2-12.08 121.91-12.08Q121.91-10.11 122.61-8.59 123.31-7.08 124.57-6.07 125.84-5.05 127.63-4.53 129.41-4 131.56-4L131.56-4Q132.17-4 132.99-4.05 133.8-4.1 134.73-4.25 135.66-4.39 136.64-4.65 137.61-4.91 138.54-5.32L138.54-5.32ZM121.91-14.97L133.97-14.97Q133.97-16.75 133.52-18.09 133.07-19.43 132.29-20.34 131.51-21.24 130.47-21.69 129.43-22.14 128.24-22.14L128.24-22.14Q126.89-22.14 125.75-21.61 124.6-21.07 123.74-20.1 122.89-19.14 122.4-17.82 121.91-16.5 121.91-14.97L121.91-14.97ZM186.61-17.09L186.61-1.88Q183.19-0.56 180.11-0.04 177.04 0.49 174.4 0.49L174.4 0.49Q170.1 0.49 166.72-0.74 163.34-1.98 160.97-4.24 158.6-6.49 157.36-9.69 156.11-12.89 156.11-16.82L156.11-16.82Q156.11-19.9 156.87-22.53 157.63-25.17 158.97-27.33 160.31-29.49 162.19-31.15 164.07-32.81 166.32-33.95 168.56-35.08 171.1-35.67 173.64-36.25 176.33-36.25L176.33-36.25Q177.21-36.25 178.28-36.18 179.36-36.11 180.56-35.95 181.77-35.79 183.07-35.53 184.36-35.28 185.68-34.89L185.68-34.89 184.73-30.18 184.24-29.93Q181.67-31.13 179.43-31.54 177.18-31.96 175.55-31.96L175.55-31.96Q172.57-31.96 170.15-30.9 167.73-29.83 166-27.97 164.27-26.1 163.33-23.55 162.39-21 162.39-17.99L162.39-17.99Q162.39-15.14 163.25-12.57 164.12-10.01 165.78-8.06 167.44-6.1 169.83-4.96 172.23-3.81 175.3-3.81L175.3-3.81Q176.6-3.81 178.15-4.03 179.7-4.25 181.21-4.74L181.21-4.74 181.21-17.09 186.61-17.09ZM195.39 0L195.39-25.88 200.18-25.88 201.01-18.16Q201.35-18.8 201.72-19.47 202.08-20.14 202.45-20.76 202.81-21.39 203.13-21.9 203.45-22.41 203.67-22.75L203.67-22.75Q204.18-23.51 204.83-24.18 205.48-24.85 206.23-25.33 206.99-25.81 207.87-26.09 208.75-26.37 209.77-26.37L209.77-26.37Q210.48-26.37 211.19-26.2 211.9-26.03 212.38-25.66L212.38-25.66 211.75-20.21Q211.31-20.34 210.72-20.37 210.14-20.41 209.67-20.41L209.67-20.41Q208.11-20.41 206.89-19.96 205.67-19.51 204.68-18.71 203.69-17.92 202.88-16.85 202.06-15.77 201.3-14.53L201.3-14.53 201.3 0 195.39 0ZM238.09-5.32L238.09-2.37Q237.02-1.61 235.77-1.07 234.53-0.54 233.21-0.18 231.89 0.17 230.58 0.33 229.28 0.49 228.11 0.49L228.11 0.49Q225.4 0.49 223.06-0.34 220.73-1.17 219.01-2.78 217.29-4.39 216.31-6.75 215.34-9.11 215.34-12.16L215.34-12.16Q215.34-15.41 216.44-18.04 217.53-20.68 219.38-22.52 221.22-24.37 223.65-25.37 226.08-26.37 228.72-26.37L228.72-26.37Q230.91-26.37 232.8-25.65 234.7-24.93 236.08-23.51 237.46-22.09 238.24-19.97 239.02-17.85 239.02-15.04L239.02-15.04Q239.02-14.36 238.96-13.59 238.9-12.82 238.75-12.08L238.75-12.08 221.46-12.08Q221.46-10.11 222.16-8.59 222.86-7.08 224.13-6.07 225.4-5.05 227.18-4.53 228.96-4 231.11-4L231.11-4Q231.72-4 232.54-4.05 233.35-4.1 234.28-4.25 235.21-4.39 236.19-4.65 237.16-4.91 238.09-5.32L238.09-5.32ZM221.46-14.97L233.52-14.97Q233.52-16.75 233.07-18.09 232.62-19.43 231.84-20.34 231.06-21.24 230.02-21.69 228.98-22.14 227.79-22.14L227.79-22.14Q226.44-22.14 225.3-21.61 224.15-21.07 223.3-20.1 222.44-19.14 221.95-17.82 221.46-16.5 221.46-14.97L221.46-14.97ZM266.95-5.32L266.95-2.37Q265.87-1.61 264.63-1.07 263.38-0.54 262.06-0.18 260.74 0.17 259.44 0.33 258.13 0.49 256.96 0.49L256.96 0.49Q254.25 0.49 251.92-0.34 249.59-1.17 247.87-2.78 246.14-4.39 245.17-6.75 244.19-9.11 244.19-12.16L244.19-12.16Q244.19-15.41 245.29-18.04 246.39-20.68 248.23-22.52 250.08-24.37 252.5-25.37 254.93-26.37 257.57-26.37L257.57-26.37Q259.77-26.37 261.66-25.65 263.55-24.93 264.93-23.51 266.31-22.09 267.09-19.97 267.87-17.85 267.87-15.04L267.87-15.04Q267.87-14.36 267.81-13.59 267.75-12.82 267.6-12.08L267.6-12.08 250.32-12.08Q250.32-10.11 251.02-8.59 251.71-7.08 252.98-6.07 254.25-5.05 256.03-4.53 257.81-4 259.96-4L259.96-4Q260.57-4 261.39-4.05 262.21-4.1 263.14-4.25 264.06-4.39 265.04-4.65 266.02-4.91 266.95-5.32L266.95-5.32ZM250.32-14.97L262.38-14.97Q262.38-16.75 261.93-18.09 261.48-19.43 260.7-20.34 259.91-21.24 258.88-21.69 257.84-22.14 256.64-22.14L256.64-22.14Q255.3-22.14 254.15-21.61 253-21.07 252.15-20.1 251.3-19.14 250.81-17.82 250.32-16.5 250.32-14.97L250.32-14.97ZM274.63 0L274.63-25.88 279.42-25.88 280.25-21.46Q281.1-22.24 282.18-23.11 283.25-23.97 284.52-24.69 285.79-25.42 287.19-25.89 288.6-26.37 290.11-26.37L290.11-26.37Q291.89-26.37 293.35-25.7 294.8-25.02 295.82-23.82 296.85-22.61 297.41-20.92 297.97-19.24 297.97-17.24L297.97-17.24 297.97 0 292.04 0 292.04-16.53Q292.04-17.85 291.67-18.85 291.31-19.85 290.66-20.51 290.01-21.17 289.12-21.51 288.23-21.85 287.21-21.85L287.21-21.85Q285.4-21.85 283.79-20.92 282.18-20 280.54-18.48L280.54-18.48 280.54 0 274.63 0Z" opacity="1" transform="matrix(1,0,0,1,0,0)" fill="#ffffff" class="wordmark-text-0" data-fill-palette-color="primary" id="text-0"></path></svg></g></svg></g></svg></g></svg></g><g transform="matrix(1,0,0,1,156.4548343647049,0)"><svg viewBox="0 0 84.5879312705901 96.28814965147896" height="96.28814965147896" width="84.5879312705901"><g><svg xmlns="http://www.w3.org/2000/svg" xmlns:xlink="http://www.w3.org/1999/xlink" version="1.1" x="0" y="0" viewBox="6.954078954030756 0.999941860987416 86.0918420919385 98.0000816972603" enable-background="new 0 0 100 100" xml:space="preserve" height="96.28814965147896" width="84.5879312705901" class="icon-icon-0" data-fill-palette-color="accent" id="icon-0"><g fill="#01ff70" data-fill-palette-color="accent"><path d="M55.371 11.629C50.564 2.297 39.189-0.737 29.715 1.926c2.474 9.451 10.408 17.161 20.668 17.189-3.341 3.268-3.468 6.352-0.383 9.251 2.844-6.817 9.319-14.264 15.624-18.068-1.302-1.671-2.604-3.341-3.906-5.012C59.367 7.205 57.275 9.303 55.371 11.629z" fill="#01ff70" data-fill-palette-color="accent"></path></g><path d="M67.843 22.874c-8.254 0-14.818 4.25-17.843 10.915-3.025-6.666-9.589-10.915-17.843-10.915-42.13 0-26.578 81.057 10.963 75.889 3.223-0.444 5.414-1.515 6.88-3.044 1.466 1.529 3.657 2.6 6.88 3.044C94.421 103.931 109.973 22.874 67.843 22.874zM29.233 37.432c-7.044 2.937-10.386 11.057-7.449 18.101 0.576 1.383-0.077 2.97-1.459 3.546-0.341 0.142-0.695 0.209-1.042 0.209-1.062 0-2.07-0.628-2.504-1.668-4.088-9.804 0.563-21.106 10.367-25.193 1.384-0.577 2.97 0.076 3.546 1.459S30.615 36.856 29.233 37.432z" fill="#01ff70" data-fill-palette-color="accent"></path></svg></g></svg></g><g></g></svg></g><defs></defs></svg><rect width="395.52" height="218.55512950623935" fill="none" stroke="none" visibility="hidden"></rect></g></svg></g></svg>